{"title":"Revolver Rani(2014)DVDScr Rip XviD{VikkyMaxx}{SilverRG]","uid":10046798,"size":736250818,"categoryP":"video","categoryS":"movies","magnet":"?xt=urn:btih:93ba4bb07960a404747bf5b5c02d5f618ae84a05&amp;dn=Revolver+Rani%282014%29DVDScr+Rip+XviD%7BVikkyMaxx%7D%7BSilverRG%5D&amp;tr=udp%3A%2F%2Ftracker.openbittorrent.com%3A80&amp;tr=udp%3A%2F%2Fopen.demonii.com%3A1337&amp;tr=udp%3A%2F%2Ftracker.coppersurfer.tk%3A6969&amp;tr=udp%3A%2F%2Fexodus.desync.com%3A6969","seeders":0,"leechers":1,"uploader":"shailendramaxx","files":19,"time":1398544893,"description":"VikkyMaxx SilverRG Presents\n\n\nGeneral:-\n \nComplete name :Revolver Rani(2014)DVDScr Rip XviD{VikkyMaxx}{SilverRG]\nFormat : AVI \nFormat/Info : Audio Video Interleave \nFile size : 692 MiB \nDuration : 2h 6mn \nOverall bit rate : 766 Kbps \n\nVideo:-\n \nID : 0 \nFormat : MPEG-4 Visual \nFormat profile : Advanced Simple@L5 \nFormat settings, BVOP : 2 \nFormat settings, QPel : No \nFormat settings, GMC : No warppoints \nFormat settings, Matrix : Default (H.263) \nCodec ID : XVID \nCodec ID/Hint : XviD \nDuration : 2h 6mn \nBit rate : 678 Kbps \nWidth : 640 pixels \nHeight : 272 pixels \nDisplay aspect ratio : 2.35:1 \nFrame rate : 29.970 fps \nColor space : YUV \nChroma subsampling : 4:2:0 \nBit depth : 8 bits \nScan type : Progressive \nCompression mode : Lossy \nBits/(Pixel*Frame) : 0.130 \nStream size : 613 MiB (89%) \nWriting library : XviD 1.2.1 (UTC 2008-12-04) \n\nAudio:-\n \nID : 1 \nFormat : MPEG Audio \nFormat version : Version 1 \nFormat profile : Layer 3 \nMode : Joint stereo \nMode extension : MS Stereo \nCodec ID : 55 \nCodec ID/Hint : MP3 \nDuration : 2h 6mn \nBit rate mode : Constant \nBit rate : 80.0 Kbps \nChannel(s) : 2 channels \nSampling rate : 32.0 KHz \nCompression mode : Lossy \nStream size : 72.3 MiB (10%) \nAlignment : Aligned on interleaves \nInterleave, duration : 133 ms (4.00 video frames) \nInterleave, preload duration : 216 ms \nTitle : VTS_01_1 T80 2_0ch 192Kbps DELAY 0ms \nWriting library : LAME3.99r \nEncoding settings : -m j -V 4 -q 2 -lowpass 13.5 -b 80 \nLanguage: Hindi\n\n\n\nSCREENS:-\n &lt;a href=&quot;\nhttp://i.imgur.com/BZZdA7n.jpg&quot; rel=&quot;nofollow&quot; target=&quot;_NEW&quot;&gt;\nhttp://i.imgur.com/BZZdA7n.jpg&lt;/a&gt;\n &lt;a href=&quot;\nhttp://i.imgur.com/KrX8xuN.jpg[&quot; rel=&quot;nofollow&quot; target=&quot;_NEW&quot;&gt;\nhttp://i.imgur.com/KrX8xuN.jpg[&lt;/a&gt;\n &lt;a href=&quot;\nhttp://i.imgur.com/oLDQv0q.jpg&quot; rel=&quot;nofollow&quot; target=&quot;_NEW&quot;&gt;\nhttp://i.imgur.com/oLDQv0q.jpg&lt;/a&gt;\n &lt;a href=&quot;\nhttp://i.imgur.com/JJdMhmD.jpg&quot; rel=&quot;nofollow&quot; target=&quot;_NEW&quot;&gt;\nhttp://i.imgur.com/JJdMhmD.jpg&lt;/a&gt;\n &lt;a href=&quot;\nhttp://i.imgur.com/EPTlGeU.jpg&quot; rel=&quot;nofollow&quot; target=&quot;_NEW&quot;&gt;\nhttp://i.imgur.com/EPTlGeU.jpg&lt;/a&gt;\n &lt;a href=&quot;\nhttp://i.imgur.com/dUeioNI.jpg&quot; rel=&quot;nofollow&quot; target=&quot;_NEW&quot;&gt;\nhttp://i.imgur.com/dUeioNI.jpg&lt;/a&gt;\n &lt;a href=&quot;\nhttp://i.imgur.com/HrWxdbH.jpg&quot; rel=&quot;nofollow&quot; target=&quot;_NEW&quot;&gt;\nhttp://i.imgur.com/HrWxdbH.jpg&lt;/a&gt;\n &lt;a href=&quot;\nhttp://i.imgur.com/J6jjSXg.jpg&quot; rel=&quot;nofollow&quot; target=&quot;_NEW&quot;&gt;\nhttp://i.imgur.com/J6jjSXg.jpg&lt;/a&gt;\n &lt;a href=&quot;\nhttp://i.imgur.com/LYMFtLt.jpg&quot; rel=&quot;nofollow&quot; target=&quot;_NEW&quot;&gt;\nhttp://i.imgur.com/LYMFtLt.jpg&lt;/a&gt;\n &lt;a href=&quot;\nhttp://i.imgur.com/d8jVp8F.jpg&quot; rel=&quot;nofollow&quot; target=&quot;_NEW&quot;&gt;\nhttp://i.imgur.com/d8jVp8F.jpg&lt;/a&gt;\n &lt;a href=&quot;\nhttp://i.imgur.com/AmFblmO.jpg&quot; rel=&quot;nofollow&quot; target=&quot;_NEW&quot;&gt;\nhttp://i.imgur.com/AmFblmO.jpg&lt;/a&gt;\n &lt;a href=&quot;\nhttp://i.imgur.com/LbzIcvh.jpg&quot; rel=&quot;nofollow&quot; target=&quot;_NEW&quot;&gt;\nhttp://i.imgur.com/LbzIcvh.jpg&lt;/a&gt;\n\n\n\n\nSAMPLE AND SCREENSHOTS INCLUDED\n\n    \n             \n             ********** PLEASE SEED AS LONG AS YOU CAN AFTER DOWNLOAD **********\n       \n                    ***** THANK YOU REGARDS - VIKKYMAXX (SilverRG) *****\n\t\t\t\t","torrent":{"xt":"urn:btih:93ba4bb07960a404747bf5b5c02d5f618ae84a05","amp;dn":"Revolver+Rani%282014%29DVDScr+Rip+XviD%7BVikkyMaxx%7D%7BSilverRG%5D","amp;tr":["udp%3A%2F%2Ftracker.openbittorrent.com%3A80","udp%3A%2F%2Fopen.demonii.com%3A1337","udp%3A%2F%2Ftracker.coppersurfer.tk%3A6969","udp%3A%2F%2Fexodus.desync.com%3A6969"],"infoHash":"93ba4bb07960a404747bf5b5c02d5f618ae84a05","infoHashBuffer":{"type":"Buffer","data":[147,186,75,176,121,96,164,4,116,123,245,181,192,45,95,97,138,232,74,5]},"announce":[],"urlList":[]}}